<mxfile host="app.diagrams.net" modified="2023-01-11T07:18:20.154Z" agent="5.0 (Windows NT 10.0; Win64; x64) AppleWebKit/537.36 (KHTML, like Gecko) Chrome/108.0.0.0 Safari/537.36" version="20.8.3" etag="RPyOBmuS-kWZiYJTnaTs" type="github">
  <diagram id="Ufr3TJWHK-SseM7DCaSE" name="第 1 页">
    <mxGraphModel dx="1434" dy="1925" grid="1" gridSize="10" guides="1" tooltips="1" connect="1" arrows="1" fold="1" page="1" pageScale="1" pageWidth="827" pageHeight="1169" math="0" shadow="0">
      <root>
        <mxCell id="0" />
        <mxCell id="1" parent="0" />
        <mxCell id="-dpN-ugVuKMlQBBnJt2n-1" value="一次训练任务" style="rounded=0;whiteSpace=wrap;html=1;fillColor=#dae8fc;strokeColor=#6c8ebf;verticalAlign=top;" vertex="1" parent="1">
          <mxGeometry x="130" y="210" width="410" height="260" as="geometry" />
        </mxCell>
        <mxCell id="-dpN-ugVuKMlQBBnJt2n-2" value="seed0" style="rounded=0;whiteSpace=wrap;html=1;fillColor=#ffe6cc;strokeColor=#d79b00;align=left;" vertex="1" parent="1">
          <mxGeometry x="170" y="260" width="190" height="120" as="geometry" />
        </mxCell>
        <mxCell id="-dpN-ugVuKMlQBBnJt2n-3" value="seed1" style="rounded=0;whiteSpace=wrap;html=1;fillColor=#ffe6cc;strokeColor=#d79b00;align=left;" vertex="1" parent="1">
          <mxGeometry x="224" y="300" width="190" height="120" as="geometry" />
        </mxCell>
        <mxCell id="-dpN-ugVuKMlQBBnJt2n-4" value="seed2" style="rounded=0;whiteSpace=wrap;html=1;fillColor=#ffe6cc;strokeColor=#d79b00;align=left;" vertex="1" parent="1">
          <mxGeometry x="270" y="340" width="190" height="120" as="geometry" />
        </mxCell>
        <mxCell id="-dpN-ugVuKMlQBBnJt2n-5" value="seed2 trainer" style="rounded=0;whiteSpace=wrap;html=1;fillColor=#ffe6cc;strokeColor=#d79b00;align=left;" vertex="1" parent="1">
          <mxGeometry x="650" y="220" width="350" height="240" as="geometry" />
        </mxCell>
        <mxCell id="-dpN-ugVuKMlQBBnJt2n-6" value="训练多个label的单一Model" style="rounded=0;whiteSpace=wrap;html=1;fillColor=#d5e8d4;strokeColor=#82b366;align=center;verticalAlign=top;" vertex="1" parent="1">
          <mxGeometry x="730" y="270" width="260" height="160" as="geometry" />
        </mxCell>
        <mxCell id="-dpN-ugVuKMlQBBnJt2n-7" value="" style="shape=flexArrow;endArrow=classic;html=1;rounded=0;" edge="1" parent="1">
          <mxGeometry width="50" height="50" relative="1" as="geometry">
            <mxPoint x="390" y="410" as="sourcePoint" />
            <mxPoint x="640" y="310" as="targetPoint" />
          </mxGeometry>
        </mxCell>
        <mxCell id="-dpN-ugVuKMlQBBnJt2n-8" value="包含多个label的单一dataset" style="shape=datastore;whiteSpace=wrap;html=1;" vertex="1" parent="1">
          <mxGeometry x="767" y="555" width="143" height="115" as="geometry" />
        </mxCell>
        <mxCell id="-dpN-ugVuKMlQBBnJt2n-12" value="" style="shape=singleArrow;direction=north;whiteSpace=wrap;html=1;arrowWidth=0.3;arrowSize=0.38;" vertex="1" parent="1">
          <mxGeometry x="810" y="430" width="60" height="123" as="geometry" />
        </mxCell>
        <mxCell id="-dpN-ugVuKMlQBBnJt2n-14" value="label0" style="rounded=0;whiteSpace=wrap;html=1;fillColor=#e1d5e7;strokeColor=#9673a6;verticalAlign=top;" vertex="1" parent="1">
          <mxGeometry x="775" y="310" width="120" height="60" as="geometry" />
        </mxCell>
        <mxCell id="-dpN-ugVuKMlQBBnJt2n-15" value="label1" style="rounded=0;whiteSpace=wrap;html=1;fillColor=#e1d5e7;strokeColor=#9673a6;verticalAlign=top;" vertex="1" parent="1">
          <mxGeometry x="795" y="330" width="120" height="60" as="geometry" />
        </mxCell>
        <mxCell id="-dpN-ugVuKMlQBBnJt2n-16" value="label2" style="rounded=0;whiteSpace=wrap;html=1;fillColor=#e1d5e7;strokeColor=#9673a6;verticalAlign=top;" vertex="1" parent="1">
          <mxGeometry x="825" y="350" width="120" height="60" as="geometry" />
        </mxCell>
        <mxCell id="-dpN-ugVuKMlQBBnJt2n-17" value="label0" style="rounded=0;whiteSpace=wrap;html=1;fillColor=#e1d5e7;strokeColor=#9673a6;verticalAlign=top;" vertex="1" parent="1">
          <mxGeometry x="650" y="30" width="340" height="150" as="geometry" />
        </mxCell>
        <mxCell id="-dpN-ugVuKMlQBBnJt2n-18" value="训练，预测，保存模型，保存分数&lt;br&gt;（命名与seed_index,label_index,训练日期、epoch相关)" style="text;html=1;align=center;verticalAlign=middle;resizable=0;points=[];autosize=1;strokeColor=none;fillColor=none;" vertex="1" parent="1">
          <mxGeometry x="655" y="85" width="320" height="40" as="geometry" />
        </mxCell>
        <mxCell id="-dpN-ugVuKMlQBBnJt2n-21" value="" style="shape=flexArrow;endArrow=classic;html=1;rounded=0;entryX=0.424;entryY=1.007;entryDx=0;entryDy=0;entryPerimeter=0;" edge="1" parent="1">
          <mxGeometry width="50" height="50" relative="1" as="geometry">
            <mxPoint x="782" y="310" as="sourcePoint" />
            <mxPoint x="781.1599999999999" y="181.04999999999995" as="targetPoint" />
          </mxGeometry>
        </mxCell>
        <mxCell id="-dpN-ugVuKMlQBBnJt2n-22" value="截图留白" style="text;html=1;align=center;verticalAlign=middle;resizable=0;points=[];autosize=1;strokeColor=none;fillColor=none;" vertex="1" parent="1">
          <mxGeometry x="20" y="95" width="70" height="30" as="geometry" />
        </mxCell>
        <mxCell id="-dpN-ugVuKMlQBBnJt2n-23" value="截图留白" style="text;html=1;align=center;verticalAlign=middle;resizable=0;points=[];autosize=1;strokeColor=none;fillColor=none;" vertex="1" parent="1">
          <mxGeometry y="320" width="70" height="30" as="geometry" />
        </mxCell>
        <mxCell id="-dpN-ugVuKMlQBBnJt2n-24" value="截图留白" style="text;html=1;align=center;verticalAlign=middle;resizable=0;points=[];autosize=1;strokeColor=none;fillColor=none;" vertex="1" parent="1">
          <mxGeometry x="720" y="-20" width="70" height="30" as="geometry" />
        </mxCell>
      </root>
    </mxGraphModel>
  </diagram>
</mxfile>
